<svg width="147" height="54" viewBox="0 0 147 54" fill="none" xmlns="http://www.w3.org/2000/svg">
<rect x="1" y="1" width="145" height="52" rx="13" fill="white" stroke="black" stroke-width="2"/>
<path d="M32.82 32.84C32.62 32.9867 32.3067 33.1667 31.88 33.38C31.4667 33.5933 30.96 33.78 30.36 33.94C29.7733 34.1 29.1267 34.1733 28.42 34.16C27.2733 34.1333 26.2467 33.9267 25.34 33.54C24.4333 33.1533 23.6667 32.6267 23.04 31.96C22.4133 31.28 21.9267 30.5 21.58 29.62C21.2467 28.74 21.08 27.8067 21.08 26.82C21.08 25.7133 21.2533 24.7 21.6 23.78C21.9467 22.86 22.44 22.06 23.08 21.38C23.72 20.7 24.4733 20.1733 25.34 19.8C26.22 19.4267 27.1867 19.24 28.24 19.24C29.1733 19.24 30.0067 19.3667 30.74 19.62C31.4733 19.8733 32.0867 20.1533 32.58 20.46L31.62 22.76C31.2467 22.4933 30.78 22.2333 30.22 21.98C29.66 21.7267 29.0267 21.6 28.32 21.6C27.6933 21.6 27.0933 21.7267 26.52 21.98C25.96 22.2333 25.46 22.5933 25.02 23.06C24.58 23.5267 24.2333 24.0667 23.98 24.68C23.74 25.2933 23.62 25.96 23.62 26.68C23.62 27.4267 23.7333 28.1133 23.96 28.74C24.1867 29.3667 24.5133 29.9133 24.94 30.38C25.3667 30.8333 25.8733 31.1867 26.46 31.44C27.06 31.6933 27.7267 31.82 28.46 31.82C29.2333 31.82 29.9 31.7 30.46 31.46C31.02 31.22 31.4667 30.96 31.8 30.68L32.82 32.84ZM34.7458 29.64C34.7458 28.7867 34.9458 28.02 35.3458 27.34C35.7591 26.6467 36.3324 26.1 37.0658 25.7C37.7991 25.3 38.6324 25.1 39.5658 25.1C40.5124 25.1 41.3391 25.3 42.0458 25.7C42.7524 26.1 43.2991 26.6467 43.6858 27.34C44.0724 28.02 44.2658 28.7867 44.2658 29.64C44.2658 30.5067 44.0724 31.2867 43.6858 31.98C43.2991 32.6733 42.7524 33.22 42.0458 33.62C41.3391 34.02 40.4991 34.22 39.5258 34.22C38.6058 34.22 37.7858 34.04 37.0658 33.68C36.3458 33.3067 35.7791 32.78 35.3658 32.1C34.9524 31.4067 34.7458 30.5867 34.7458 29.64ZM37.1058 29.66C37.1058 30.1533 37.2124 30.6 37.4258 31C37.6391 31.4 37.9258 31.72 38.2858 31.96C38.6458 32.1867 39.0524 32.3 39.5058 32.3C39.9858 32.3 40.4058 32.1867 40.7658 31.96C41.1258 31.72 41.4058 31.4 41.6058 31C41.8058 30.6 41.9058 30.1533 41.9058 29.66C41.9058 29.1667 41.8058 28.7267 41.6058 28.34C41.4058 27.94 41.1258 27.62 40.7658 27.38C40.4058 27.14 39.9858 27.02 39.5058 27.02C39.0524 27.02 38.6458 27.14 38.2858 27.38C37.9258 27.62 37.6391 27.94 37.4258 28.34C37.2124 28.7267 37.1058 29.1667 37.1058 29.66ZM48.7181 25.48L48.9181 27.26L48.8581 27.04C49.1381 26.4667 49.5648 26.0067 50.1381 25.66C50.7248 25.3 51.4181 25.12 52.2181 25.12C53.0315 25.12 53.6981 25.36 54.2181 25.84C54.7515 26.3067 55.0248 26.9133 55.0381 27.66V34H52.6781V28.52C52.6648 28.1067 52.5448 27.7733 52.3181 27.52C52.1048 27.2533 51.7581 27.12 51.2781 27.12C50.8248 27.12 50.4181 27.26 50.0581 27.54C49.7115 27.8067 49.4381 28.18 49.2381 28.66C49.0515 29.1267 48.9581 29.6667 48.9581 30.28V34H46.5981V25.48H48.7181ZM58.9025 21.74H61.2425V25.48H63.4425V27.32H61.2425V34H58.9025V27.32H57.4625V25.48H58.9025V21.74ZM69.2016 34.22C68.4016 34.22 67.6749 34.06 67.0216 33.74C66.3816 33.4067 65.8682 32.9067 65.4816 32.24C65.1082 31.5733 64.9216 30.74 64.9216 29.74C64.9216 28.7933 65.1149 27.9733 65.5016 27.28C65.9016 26.5733 66.4282 26.0333 67.0816 25.66C67.7349 25.2867 68.4349 25.1 69.1816 25.1C70.0082 25.1 70.6616 25.26 71.1416 25.58C71.6349 25.8867 72.0282 26.2467 72.3216 26.66L72.2016 27L72.4216 25.48H74.6016V34H72.2416V31.98L72.4616 32.52C72.4216 32.5867 72.3216 32.7133 72.1616 32.9C72.0016 33.0733 71.7816 33.2667 71.5016 33.48C71.2349 33.68 70.9082 33.8533 70.5216 34C70.1349 34.1467 69.6949 34.22 69.2016 34.22ZM69.8416 32.3C70.2416 32.3 70.6016 32.2333 70.9216 32.1C71.2416 31.9667 71.5082 31.7733 71.7216 31.52C71.9482 31.2667 72.1216 30.96 72.2416 30.6V28.7C72.1349 28.3533 71.9616 28.06 71.7216 27.82C71.4816 27.5667 71.1949 27.3733 70.8616 27.24C70.5416 27.0933 70.1749 27.02 69.7616 27.02C69.3216 27.02 68.9082 27.1333 68.5216 27.36C68.1482 27.5733 67.8482 27.88 67.6216 28.28C67.4082 28.6667 67.3016 29.12 67.3016 29.64C67.3016 30.1333 67.4149 30.5867 67.6416 31C67.8816 31.4 68.1949 31.72 68.5816 31.96C68.9682 32.1867 69.3882 32.3 69.8416 32.3ZM84.7133 33.22C84.3399 33.5267 83.8733 33.7733 83.3133 33.96C82.7666 34.1333 82.2266 34.22 81.6933 34.22C80.7333 34.22 79.8933 34.04 79.1733 33.68C78.4666 33.32 77.9133 32.8067 77.5133 32.14C77.1266 31.46 76.9333 30.66 76.9333 29.74C76.9333 28.8067 77.1466 28.0067 77.5733 27.34C77.9999 26.6733 78.5533 26.16 79.2333 25.8C79.9266 25.44 80.6599 25.26 81.4333 25.26C82.1666 25.26 82.8066 25.36 83.3533 25.56C83.9133 25.76 84.3933 26.0267 84.7933 26.36L83.6333 27.88C83.4199 27.7067 83.1466 27.5467 82.8133 27.4C82.4799 27.2533 82.0933 27.18 81.6533 27.18C81.2133 27.18 80.8133 27.2933 80.4533 27.52C80.0933 27.7333 79.8066 28.0333 79.5933 28.42C79.3933 28.8067 79.2933 29.2467 79.2933 29.74C79.2933 30.2067 79.3999 30.64 79.6133 31.04C79.8399 31.4267 80.1466 31.7333 80.5333 31.96C80.9199 32.1867 81.3666 32.3 81.8733 32.3C82.2066 32.3 82.5133 32.2533 82.7933 32.16C83.0733 32.0667 83.3199 31.9333 83.5333 31.76L84.7133 33.22ZM87.8088 21.74H90.1488V25.48H92.3488V27.32H90.1488V34H87.8088V27.32H86.3688V25.48H87.8088V21.74ZM101.414 34V18.88H101.434L109.334 30.08L108.294 29.84L116.174 18.88H116.194V34H113.774V24.38L113.934 25.62L108.714 33.02H108.674L103.354 25.62L103.774 24.48V34H101.414ZM123.803 34.22C122.803 34.22 121.943 34.0267 121.223 33.64C120.516 33.24 119.97 32.7 119.583 32.02C119.21 31.34 119.023 30.5533 119.023 29.66C119.023 28.82 119.236 28.0533 119.663 27.36C120.103 26.6667 120.69 26.12 121.423 25.72C122.156 25.3067 122.97 25.1 123.863 25.1C125.036 25.1 126.003 25.4467 126.763 26.14C127.536 26.82 128.043 27.7867 128.283 29.04L121.483 31.3L120.943 30L126.183 28.14L125.703 28.4C125.57 28.0133 125.343 27.6733 125.023 27.38C124.703 27.0867 124.256 26.94 123.683 26.94C123.216 26.94 122.803 27.0533 122.443 27.28C122.096 27.4933 121.823 27.7933 121.623 28.18C121.436 28.5667 121.343 29.02 121.343 29.54C121.343 30.1 121.45 30.58 121.663 30.98C121.876 31.38 122.176 31.6867 122.563 31.9C122.95 32.1133 123.383 32.22 123.863 32.22C124.196 32.22 124.516 32.16 124.823 32.04C125.143 31.92 125.443 31.7667 125.723 31.58L126.783 33.32C126.343 33.5867 125.856 33.8067 125.323 33.98C124.803 34.14 124.296 34.22 123.803 34.22Z" fill="black"/>
</svg>
