<svg width="108" height="34" viewBox="0 0 108 34" fill="none" xmlns="http://www.w3.org/2000/svg">
<path d="M34 14.92C33.3867 15.5867 32.3733 16.1867 30.96 16.72C29.5467 17.2267 28.4133 17.48 27.56 17.48C26.7333 17.48 26.12 17.4533 25.72 17.4C25.0533 21.3467 23.3467 24.64 20.6 27.28C17.88 29.92 14.7067 31.24 11.08 31.24C7.48 31.24 4.76 30.12 2.92 27.88C1.10667 25.64 0.2 22.72 0.2 19.12C0.2 16.7733 0.56 14.4933 1.28 12.28C2 10.04 2.98667 8.05333 4.24 6.32C5.52 4.58666 7.12 3.2 9.04 2.16C10.96 1.09333 12.96 0.559999 15.04 0.559999C17.1467 0.559999 18.8667 1.04 20.2 2C21.56 2.93333 22.24 4.24 22.24 5.92C22.24 7.2 21.7867 8.34667 20.88 9.36C20 10.3467 18.7733 10.84 17.2 10.84C16.3733 10.84 15.64 10.64 15 10.24C14.36 9.81333 14.04 9.14667 14.04 8.24C14.04 7.81333 14.1467 7.44 14.36 7.12C14.5733 6.8 14.7867 6.6 15 6.52L15.36 6.36C15.36 7.42666 15.7867 7.96 16.64 7.96C17.04 7.96 17.3867 7.82667 17.68 7.56C17.9733 7.26667 18.1333 6.94667 18.16 6.6C18.1867 6.25333 18.1733 5.98667 18.12 5.8C18.0667 5.58667 17.96 5.34667 17.8 5.08C17.4267 4.41333 16.64 4.08 15.44 4.08C13.8667 4.08 12.3733 4.82667 10.96 6.32C9.54667 7.81333 8.41333 9.73333 7.56 12.08C6.73333 14.4267 6.32 16.8267 6.32 19.28C6.32 21.3333 6.65333 23.16 7.32 24.76C7.69333 25.6133 8.24 26.2933 8.96 26.8C9.68 27.28 10.5467 27.52 11.56 27.52C13.24 27.52 14.7333 26.8133 16.04 25.4C17.3733 23.9867 18.3467 22.28 18.96 20.28C19.6 18.28 19.92 16.2533 19.92 14.2V13.72C19.84 13.4267 19.8 13.1467 19.8 12.88C19.8 11.6 20.2533 10.6267 21.16 9.96C21.7467 9.53333 22.48 9.32 23.36 9.32C23.6 9.32 23.9867 9.36 24.52 9.44C25.0533 9.52 25.4267 9.64 25.64 9.8C25.08 9.82667 24.64 10.0133 24.32 10.36C24.0267 10.7067 23.88 11.1733 23.88 11.76C23.88 12.3467 24.1467 12.8933 24.68 13.4C25.4267 14.12 26.5867 14.48 28.16 14.48C29.76 14.48 31.4133 13.8267 33.12 12.52L34 14.92ZM28.5628 9.36C28.5628 6.82667 29.6828 4.73333 31.9228 3.08C34.1628 1.4 37.1228 0.559999 40.8028 0.559999C42.7495 0.559999 44.4961 0.759998 46.0428 1.16C47.5895 1.53333 48.8161 2.01333 49.7228 2.6C50.6295 3.18667 51.3895 3.86667 52.0028 4.64C53.0161 5.97333 53.5095 7.46667 53.4828 9.12C53.4828 10.7467 52.8428 12.2 51.5628 13.48C50.2828 14.76 48.7361 15.4267 46.9228 15.48C49.1895 15.64 51.1495 16.3867 52.8028 17.72C54.4828 19.0533 55.3228 20.7333 55.3228 22.76C55.3228 25.4267 54.2961 27.5067 52.2428 29C50.1895 30.4933 47.6828 31.24 44.7228 31.24C41.7895 31.24 39.7895 30.8533 38.7228 30.08L39.9628 26.72C41.1361 27.3333 42.4961 27.64 44.0428 27.64C45.6161 27.64 46.8961 27.1867 47.8828 26.28C48.8695 25.3467 49.3628 24.12 49.3628 22.6C49.3628 21.08 48.6828 19.8 47.3228 18.76C45.9895 17.72 44.1628 17.2 41.8428 17.2L42.2028 14.24C43.8028 14.24 45.1495 13.8667 46.2428 13.12C47.3628 12.3467 47.9361 11.2 47.9628 9.68C48.0161 8.16 47.3361 6.88 45.9228 5.84C44.4028 4.74667 42.3228 4.2 39.6828 4.2C37.9495 4.2 36.2561 4.65333 34.6028 5.56C32.9495 6.44 32.1228 7.62666 32.1228 9.12C32.1228 9.84 32.4161 10.4533 33.0028 10.96C33.5895 11.44 34.3628 11.7333 35.3228 11.84L34.8828 14.8C32.8561 14.72 31.2961 14.1467 30.2028 13.08C29.1095 12.0133 28.5628 10.7733 28.5628 9.36ZM40.0028 23.32C39.5761 26.1733 38.7495 28.2 37.5228 29.4C36.2961 30.5733 34.8561 31.16 33.2028 31.16C31.5495 31.16 30.2961 30.7333 29.4428 29.88C28.5895 29.0267 28.1628 27.9333 28.1628 26.6C28.1628 23.4533 30.5495 20.7733 35.3228 18.56C35.4561 17.44 35.6428 15.9333 35.8828 14.04C36.1495 12.12 36.3495 10.5733 36.4828 9.4C36.6428 8.22667 36.7495 7.45333 36.8028 7.08C37.8961 6.38667 39.1628 6.04 40.6028 6.04C41.2695 6.04 41.9095 6.10667 42.5228 6.24L40.0028 23.32ZM31.1228 26.08C31.1228 27.04 31.5761 27.52 32.4828 27.52C32.8561 27.52 33.2428 27.28 33.6428 26.8C34.0695 26.2933 34.3628 25.5067 34.5228 24.44L34.8828 21.96C32.3761 23.3733 31.1228 24.7467 31.1228 26.08Z" fill="black"/>
<path d="M60.256 25.624C61.248 25.416 61.984 25.016 62.464 24.424C62.96 23.832 63.208 23.264 63.208 22.72C63.208 22.16 63.056 21.784 62.752 21.592C62.464 21.384 62.144 21.28 61.792 21.28C61.04 21.28 60.376 21.704 59.8 22.552C59.24 23.384 58.96 24.384 58.96 25.552C58.96 26.704 59.232 27.568 59.776 28.144C60.336 28.704 61.024 28.984 61.84 28.984C63.04 28.984 64.192 28.568 65.296 27.736C66.4 26.904 67.296 25.816 67.984 24.472C68.336 24.808 68.656 25.224 68.944 25.72C68.416 26.92 67.48 28.096 66.136 29.248C65.464 29.808 64.664 30.264 63.736 30.616C62.824 30.968 61.88 31.144 60.904 31.144C59.304 31.144 58.04 30.656 57.112 29.68C56.12 28.624 55.624 27.272 55.624 25.624C55.624 23.976 56.24 22.536 57.472 21.304C58.72 20.072 60.208 19.456 61.936 19.456C63.168 19.456 64.168 19.728 64.936 20.272C65.704 20.8 66.096 21.52 66.112 22.432C66.112 23.664 65.616 24.664 64.624 25.432C63.648 26.2 62.304 26.736 60.592 27.04L60.256 25.624ZM77.0037 23.656C78.2677 24.584 78.8997 25.68 78.8997 26.944C78.8997 28.208 78.4037 29.224 77.4117 29.992C76.4197 30.76 75.1717 31.144 73.6677 31.144C72.6917 31.144 71.8757 30.904 71.2197 30.424C70.5797 29.928 70.2597 29.32 70.2597 28.6C70.2597 27.88 70.4997 27.312 70.9797 26.896C71.4597 26.464 72.0597 26.2 72.7797 26.104C72.4437 26.584 72.2757 27.048 72.2757 27.496C72.2757 27.928 72.4277 28.28 72.7317 28.552C73.0357 28.824 73.4197 28.96 73.8837 28.96C74.3477 28.96 74.7317 28.792 75.0357 28.456C75.3397 28.104 75.4917 27.704 75.4917 27.256C75.4917 26.52 75.1477 25.864 74.4597 25.288C74.0437 24.952 73.5957 24.64 73.1157 24.352C72.6357 24.048 72.3797 23.888 72.3477 23.872C72.2837 23.824 72.2197 23.784 72.1557 23.752C71.8677 24.088 71.4517 24.552 70.9077 25.144C70.3637 25.72 69.9317 26.184 69.6117 26.536C68.7157 27.512 68.2117 28.328 68.0997 28.984C68.0677 29.112 68.0517 29.36 68.0517 29.728C68.0517 30.08 68.1557 30.448 68.3637 30.832C68.5877 31.216 68.8517 31.504 69.1557 31.696C69.4597 31.888 69.7557 32.04 70.0437 32.152C70.3477 32.28 70.6037 32.368 70.8117 32.416C71.0357 32.464 71.1477 32.496 71.1477 32.512C71.1477 32.624 70.9717 32.752 70.6197 32.896C69.9637 33.136 69.2757 33.256 68.5557 33.256C67.8517 33.256 67.1637 33 66.4917 32.488C65.5797 31.784 65.1237 30.848 65.1237 29.68C65.1237 28.96 65.3077 28.248 65.6757 27.544C66.3317 26.296 67.8677 24.584 70.2837 22.408C69.6917 21.816 69.3957 21.184 69.3957 20.512C69.3957 19.84 69.6437 19.272 70.1397 18.808C70.6517 18.344 71.2517 18.112 71.9397 18.112C72.5637 18.112 73.1077 18.36 73.5717 18.856C73.8757 19.192 74.0277 19.616 74.0277 20.128C74.0277 20.64 73.8597 21.216 73.5237 21.856C75.2357 22.624 76.3957 23.224 77.0037 23.656ZM71.7957 20.944C72.1797 20.544 72.3717 20.256 72.3717 20.08C72.3717 19.68 72.1957 19.464 71.8437 19.432C71.4437 19.432 71.2437 19.656 71.2437 20.104C71.2437 20.376 71.4277 20.656 71.7957 20.944ZM82.5393 31.168C81.5633 31.168 80.7953 30.896 80.2353 30.352C79.6753 29.792 79.3953 29.032 79.3953 28.072C79.3953 27.816 79.8273 24.016 80.6913 16.672C80.9153 14.784 81.5153 13.592 82.4913 13.096C82.9393 12.856 83.4753 12.736 84.0993 12.736C86.2113 12.736 87.2673 13.712 87.2673 15.664C87.2673 15.824 87.2593 15.992 87.2433 16.168C87.0833 18.312 85.7393 20.496 83.2113 22.72C83.1313 23.504 83.0433 24.264 82.9473 25C82.7553 26.648 82.6593 27.56 82.6593 27.736C82.6593 28.568 83.0193 28.984 83.7393 28.984C84.5233 28.984 85.2513 28.536 85.9233 27.64C86.6113 26.728 87.1393 25.568 87.5073 24.16C87.6513 24.208 87.8513 24.344 88.1073 24.568C88.3633 24.776 88.5393 24.96 88.6353 25.12C88.3793 26.448 87.8033 27.72 86.9073 28.936C86.4593 29.56 85.8913 30.072 85.2033 30.472C84.4193 30.936 83.5313 31.168 82.5393 31.168ZM83.4753 20.32C84.9473 18.704 85.6833 17.256 85.6833 15.976C85.6833 15.208 85.3953 14.824 84.8193 14.824C84.4513 14.856 84.2033 15.096 84.0753 15.544C83.9633 15.992 83.8513 16.72 83.7393 17.728C83.6433 18.736 83.5793 19.36 83.5473 19.6L83.4753 20.32ZM91.1232 25.624C92.1152 25.416 92.8512 25.016 93.3312 24.424C93.8272 23.832 94.0752 23.264 94.0752 22.72C94.0752 22.16 93.9232 21.784 93.6192 21.592C93.3312 21.384 93.0112 21.28 92.6592 21.28C91.9072 21.28 91.2432 21.704 90.6672 22.552C90.1072 23.384 89.8272 24.384 89.8272 25.552C89.8272 26.704 90.0992 27.568 90.6432 28.144C91.2032 28.704 91.8912 28.984 92.7072 28.984C93.9072 28.984 95.0592 28.568 96.1632 27.736C97.2672 26.904 98.1632 25.816 98.8512 24.472C99.2032 24.808 99.5232 25.224 99.8112 25.72C99.2832 26.92 98.3472 28.096 97.0032 29.248C96.3312 29.808 95.5312 30.264 94.6032 30.616C93.6912 30.968 92.7472 31.144 91.7712 31.144C90.1712 31.144 88.9072 30.656 87.9792 29.68C86.9872 28.624 86.4912 27.272 86.4912 25.624C86.4912 23.976 87.1072 22.536 88.3392 21.304C89.5872 20.072 91.0752 19.456 92.8032 19.456C94.0352 19.456 95.0352 19.728 95.8032 20.272C96.5712 20.8 96.9632 21.52 96.9792 22.432C96.9792 23.664 96.4832 24.664 95.4912 25.432C94.5152 26.2 93.1712 26.736 91.4592 27.04L91.1232 25.624ZM104.919 22.6C104.919 21.896 104.591 21.544 103.935 21.544C103.295 21.544 102.783 21.96 102.399 22.792C104.127 24.152 104.991 25.68 104.991 27.376C104.991 28.608 104.647 29.544 103.959 30.184C103.271 30.824 102.407 31.144 101.367 31.144C100.327 31.144 99.5669 30.824 99.0869 30.184C98.6069 29.528 98.3669 28.704 98.3669 27.712C98.3669 27.408 98.3749 27.184 98.3909 27.04L99.2309 19.72C99.8069 19.544 100.391 19.456 100.983 19.456C101.959 19.456 102.447 19.816 102.447 20.536V20.584C103.087 19.832 103.903 19.456 104.895 19.456C105.615 19.456 106.175 19.624 106.575 19.96C106.975 20.28 107.175 20.712 107.175 21.256C107.175 21.8 106.967 22.248 106.551 22.6C106.151 22.936 105.623 23.104 104.967 23.104C104.935 23.104 104.903 23.104 104.871 23.104C104.903 22.928 104.919 22.76 104.919 22.6ZM103.431 27.256C103.431 26.328 102.951 25.4 101.991 24.472C101.703 26.776 101.559 27.936 101.559 27.952C101.559 28.624 101.831 28.96 102.375 28.96C103.079 28.96 103.431 28.392 103.431 27.256Z" fill="black"/>
</svg>
